<svg enable-background="new 0 0 511.945 511.945" height="512" viewBox="0 0 511.945 511.945" width="512" xmlns="http://www.w3.org/2000/svg"><path d="m379.922 279.224-52.63 64.18h26.05c-.23 18.18-5.9 35.4-15.71 49.79-9.82 14.39-23.78 25.95-40.62 32.8l-9.94 4.05v-179.71h75.45v-52.34h-75.45l.06-26.43c31.96-12.6 54.45-44 53.81-80.58-.77-44.34-36.1-81.02-80.38-83.35-49.02-2.58-89.58 36.41-89.58 84.87 0 35.95 22.34 66.67 53.89 79.08v26.41h-75.45v52.34h75.45v179.71l-9.94-4.05c-33.67-13.7-55.86-46.24-56.33-82.59h26.05l-52.63-64.18-52.63 64.18h25.89c0 60.13 36.48 114.24 92.21 136.79l58.48 23.66 58.48-23.66c55.73-22.55 92.21-76.66 92.21-136.79h25.89zm-122.7-144.9c-23.05 0-41.74-18.69-41.74-41.74s18.69-41.74 41.74-41.74 41.74 18.69 41.74 41.74-18.69 41.74-41.74 41.74z" fill="#5d95c9"/><g fill="#2170a9"><path d="m327.292 343.404h20l42.63-51.986-10-12.194z"/><path d="m357.632 393.194c9.81-14.39 15.48-31.61 15.71-49.79h-20c-.23 18.18-5.9 35.4-15.71 49.79-7.789 11.414-18.19 21.036-30.56 27.951v8.899l9.94-4.05c16.84-6.85 30.8-18.41 40.62-32.8z"/><path d="m224.872 171.584v26.41h20v-26.41c-31.55-12.41-53.89-43.13-53.89-79.08 0-43.537 32.739-79.423 74.937-84.396-1.772-.207-3.554-.379-5.357-.474-49.02-2.58-89.58 36.41-89.58 84.87 0 35.95 22.34 66.67 53.89 79.08z"/><path d="m267.222 133.109c3.205.788 6.552 1.215 10 1.215 23.05 0 41.74-18.69 41.74-41.74s-18.69-41.74-41.74-41.74c-3.448 0-6.795.426-10 1.215 18.22 4.482 31.74 20.923 31.74 40.525s-13.52 36.043-31.74 40.525z"/><path d="m217.492 480.194c-55.73-22.55-92.21-76.66-92.21-136.79h-20c0 60.13 36.48 114.24 92.21 136.79l58.48 23.66 10-4.046z"/><path d="m132.022 279.224-52.63 64.18h20l42.63-51.986z"/><path d="m244.872 430.044v-179.71h-20v170.81c3.226 1.803 6.577 3.433 10.06 4.85z"/><path d="m149.422 197.994h20v52.34h-20z"/></g><path d="m207.982 92.582c0 27.15 22.088 49.238 49.239 49.238 27.15 0 49.238-22.088 49.238-49.238s-22.088-49.239-49.238-49.239c-27.151.001-49.239 22.089-49.239 49.239zm83.477 0c0 18.879-15.359 34.238-34.238 34.238s-34.239-15.359-34.239-34.238 15.359-34.239 34.239-34.239c18.879.001 34.238 15.36 34.238 34.239z"/><path d="m379.923 267.396-68.48 83.508h33.958c-3.133 30.052-22.508 56.298-50.828 67.984v-161.054h75.45v-67.34h-75.433l.032-13.977c53.037-24.446 71.114-92.326 34.951-139.882l-11.94 9.079c31.436 41.34 13.766 100.337-33.25 118.873l-4.737 1.868-.089 39.04h75.467v37.34h-75.45v198.364l20.266-8.257c36.41-14.811 60.505-49.997 61.003-89.442l.096-7.595h-17.796l36.781-44.853 36.78 44.853h-17.541v7.5c0 57.36-34.355 108.324-87.523 129.837l-55.667 22.522-55.667-22.522c-15.707-6.355-29.961-15.382-42.367-26.829l-10.172 11.024c13.739 12.678 29.523 22.673 46.913 29.71l61.293 24.798 61.293-24.798c55.254-22.357 93.79-75.076 96.718-136.242h34.419z"/><path d="m112.782 343.404v-7.5h-17.54l36.78-44.853 36.781 44.853h-17.798l.098 7.597c.511 39.461 24.456 74.569 61 89.438l20.27 8.258v-198.363h-75.45v-37.34h75.45v-39.02l-4.755-1.87c-53.131-20.898-65.837-89.553-24.968-128.327 30.176-28.629 76.352-27.874 105.753-.705l10.18-11.017c-34.963-32.308-90.113-33.452-126.258.84-18.6 17.646-28.843 41.479-28.843 67.108 0 37.065 21.885 69.349 53.89 84.036v13.955h-75.45v67.34h75.45v161.055c-28.372-11.708-47.688-37.852-50.827-67.984h33.957l-68.48-83.508-68.479 83.508h34.42c1.699 35.189 15.315 68.775 38.773 95.28l11.232-9.941c-22.69-25.639-35.186-58.61-35.186-92.84z"/><path d="m263.472 390.407h-15v-15h15zm0-30h-15v-15h15zm0-30h-15v-40.429h15z" fill="#fff"/></svg>